<?xml version="1.0" encoding="utf-8"?>
<!-- Generator: Adobe Illustrator 18.1.1, SVG Export Plug-In . SVG Version: 6.00 Build 0)  -->
<svg version="1.1" id="Capa_1" xmlns="http://www.w3.org/2000/svg" xmlns:xlink="http://www.w3.org/1999/xlink" x="0px" y="0px"
	 viewBox="0 0 800 599.9" enable-background="new 0 0 800 599.9" xml:space="preserve">
<g>
	<g opacity="0.15">
		
			<linearGradient id="SVGID_1_" gradientUnits="userSpaceOnUse" x1="16.2656" y1="266.2241" x2="850.2126" y2="266.2241" gradientTransform="matrix(0.9009 0 0 -0.9009 9.905851e-02 772.6564)">
			<stop  offset="0" style="stop-color:#FFEF27"/>
			<stop  offset="2.000000e-02" style="stop-color:#FFEA22"/>
			<stop  offset="0.1" style="stop-color:#FED70F"/>
			<stop  offset="0.19" style="stop-color:#FECC04"/>
			<stop  offset="0.28" style="stop-color:#FEC800"/>
			<stop  offset="0.55" style="stop-color:#F19034"/>
			<stop  offset="0.89" style="stop-color:#E96032"/>
			<stop  offset="1" style="stop-color:#E3322E"/>
		</linearGradient>
		<path fill="url(#SVGID_1_)" d="M222.3,479.8h374.5c0,0,33.5,7.3,17.8,21.9c-15.7,14.6-9.3,5.5-9.3,5.5h143.6
			c0,0,24.4,11.3,15.2,20.4c-9.2,9.2-59.6,5.2-59.6,5.2s61.8,46.7,14.8,51.2c-47,4.6-585.8-1.5-585.8-1.5s-61.1-15.9,1.2-26.9
			c17.8-3.1,22.8-8.2,22.8-8.2S14.8,557.6,14.8,539c0-13.2-1.6-18,16.7-18h153c0,0-66.7-35.7,29.9-39.4"/>
	</g>
	<polyline fill="#999A9A" points="339.1,378 366,499.7 359.4,389 510.1,389 506.8,487.6 531.4,373.1 	"/>
	<path fill="#1D1D1B" d="M367,375.9c0,0,17,52.6,71.2,52.6s74.5-51.5,74.5-51.5"/>
	
		<linearGradient id="SVGID_2_" gradientUnits="userSpaceOnUse" x1="620.7991" y1="454.8698" x2="881.7453" y2="454.8698" gradientTransform="matrix(0.9009 0 0 -0.9009 9.905851e-02 772.6564)">
		<stop  offset="0" style="stop-color:#EDEDED"/>
		<stop  offset="0.16" style="stop-color:#E8E8E8"/>
		<stop  offset="0.34" style="stop-color:#DBDBDA"/>
		<stop  offset="0.54" style="stop-color:#C4C4C4"/>
		<stop  offset="0.74" style="stop-color:#A4A4A3"/>
		<stop  offset="0.95" style="stop-color:#7C7C7B"/>
		<stop  offset="1" style="stop-color:#70706F"/>
	</linearGradient>
	<path fill="url(#SVGID_2_)" d="M624.3,346.3h117.2c0,0,10.5,2.3,5.6,6.9c-4.9,4.6-2.9,1.7-2.9,1.7h44.9c0,0,7.6,3.5,4.8,6.4
		c-2.9,2.9-18.7,1.6-18.7,1.6s19.3,14.6,4.6,16s-183.3-0.5-183.3-0.5s-19.1-5,0.4-8.4c5.6-1,7.1-2.6,7.1-2.6s-44.6,3.2-44.6-2.7
		c0-4.1-0.5-5.6,5.2-5.6h47.9c0,0-20.9-11.2,9.4-12.3"/>
	
		<linearGradient id="SVGID_3_" gradientUnits="userSpaceOnUse" x1="10.3581" y1="518.7657" x2="270.4508" y2="518.7657" gradientTransform="matrix(0.9009 0 0 -0.9009 9.905851e-02 772.6564)">
		<stop  offset="0" style="stop-color:#EDEDED"/>
		<stop  offset="0.16" style="stop-color:#E8E8E8"/>
		<stop  offset="0.34" style="stop-color:#DBDBDA"/>
		<stop  offset="0.54" style="stop-color:#C4C4C4"/>
		<stop  offset="0.74" style="stop-color:#A4A4A3"/>
		<stop  offset="0.95" style="stop-color:#7C7C7B"/>
		<stop  offset="1" style="stop-color:#70706F"/>
	</linearGradient>
	<path fill="url(#SVGID_3_)" d="M74.1,288.7h116.8c0,0,10.4,2.3,5.5,6.9c-4.9,4.6-2.9,1.7-2.9,1.7h44.8c0,0,7.6,3.5,4.7,6.4
		c-2.9,2.9-18.6,1.6-18.6,1.6s19.3,14.5,4.6,16s-182.7-0.5-182.7-0.5s-19.1-5,0.4-8.4c5.5-1,7.1-2.6,7.1-2.6S9.4,313,9.4,307.2
		c0-4.1-0.5-5.6,5.2-5.6h47.7c0,0-20.9-11.1,9.3-12.3"/>
	<rect x="10.2" y="18.3" fill="none" stroke="#1D1D1B" stroke-miterlimit="10" width="221.5" height="157.4"/>
	<rect x="10.2" y="25.3" fill="none" stroke="#1D1D1B" stroke-miterlimit="10" width="221.5" height="143.3"/>
	<path fill="#1D1D1B" stroke="#1D1D1B" stroke-width="2" stroke-miterlimit="10" d="M615,316.4V27.2c0,0,1.4-15.1,16.6-15.1h138.5
		c0,0,8.7,5.1,8.7,21.6v283.4"/>
	<path fill="#FFFFFF" stroke="#1D1D1B" stroke-width="2" stroke-miterlimit="10" d="M625.1,309.3V50.2c0,0,1.3-13.6,14.5-13.6H761
		c0,0,7.6,0.6,7.6,15.5v257.8"/>
	<polyline fill="#FFCE00" points="638.8,137.9 712.4,137.9 712.4,139.7 637.7,140.1 	"/>
	<polyline fill="#FFCE00" points="638.8,145.1 712.4,145.1 712.4,146.9 637.7,147.3 	"/>
	<polyline fill="#FFCE00" points="638.8,152.3 712.4,152.3 712.4,154.1 637.7,154.5 	"/>
	<polyline fill="#FFCE00" points="638.8,159.5 712.4,159.5 712.4,161.4 637.7,161.7 	"/>
	<polyline fill="#FFCE00" points="638.8,166.8 712.4,166.8 712.4,168.6 637.7,168.9 	"/>
	<polyline fill="#FFCE00" points="638.8,174 712.4,174 712.4,175.8 637.7,176.1 	"/>
	<polyline fill="#FFCE00" points="638.8,181.2 712.4,181.2 712.4,183 637.7,183.4 	"/>
	<polyline fill="#FFCE00" points="638.8,188.4 712.4,188.4 712.4,190.2 637.7,190.6 	"/>
	<polyline fill="#FFCE00" points="638.8,195.6 712.4,195.6 712.4,197.4 637.7,197.8 	"/>
	<polyline fill="#FFCE00" points="638.8,202.8 712.4,202.8 712.4,204.6 637.7,205 	"/>
	<polyline fill="#FFCE00" points="638.8,210 712.4,210 712.4,211.8 637.7,212.2 	"/>
	<polyline fill="#FFCE00" points="638.8,217.2 712.4,217.2 712.4,219 637.7,219.4 	"/>
	<polyline fill="#FFCE00" points="638.8,224.5 712.4,224.5 712.4,226.3 637.7,226.6 	"/>
	<polyline fill="#FFCE00" points="638.8,231.7 712.4,231.7 712.4,233.5 637.7,233.8 	"/>
	<path fill="#1D1D1B" d="M759.3,299.3V281H632.8c0,0-2.4,17.3,0,17.3h126"/>
	<path fill="#1D1D1B" d="M473.9,138.1c0,14.6-11.9,26.5-26.5,26.5c-14.6,0-26.5-11.9-26.5-26.5s11.9-26.5,26.5-26.5c0,0,0,0,0,0
		C462,111.7,473.9,123.5,473.9,138.1z"/>
	<path fill="#FFFFFF" stroke="#1D1D1B" stroke-miterlimit="10" d="M294,241.6c0,0-24.1-37.3-19-65.8c5.1-28.5,12.4-39.5,12.4-39.5
		s30,43.8,29.2,70.9c-0.7,27-12.4,34.3-12.4,34.3"/>
	<polyline fill="#1D1D1B" stroke="#1D1D1B" stroke-width="2" stroke-miterlimit="10" points="293.3,354.8 270.6,236.5 341.5,236.5 
		353.9,236.5 328.3,357 293.3,358.5 	"/>
	<path fill="#FFFFFF" stroke="#1D1D1B" stroke-miterlimit="10" d="M296.4,352.4c0,0,8-6.9,7.7-17.9h-30.7
		c-1.1,7.1,1.7,14.3,7.3,18.8c0,0-2.4,2.4-1.6,4.7h19.7C298.7,358.1,298.7,353.9,296.4,352.4z"/>
	<path fill="#FFFFFF" stroke="#1D1D1B" stroke-miterlimit="10" d="M274.1,338.6c0,0-5.7-1.5-6.4,1.1c-0.7,2.6-1.8,8.9,8.8,8l0.7,2
		c0,0-12.1,2.4-13-5.5s2.2-8.6,9-8.2"/>
	<path fill="#FFCE00" d="M290.3,331.5c0,0,7.1-5.9,2.6-10.4c-4.6-4.6-9.7-6.2-6-8.6s6.9-3.1,5.3-7.3c-1.2-2.6-3.4-4.6-6.2-5.3
		c0,0,5.1,5.7,0.2,7.5c-4.9,1.8-10,6.2-5.8,11.3c4.2,5.1,9.9,4,8.9,16.6"/>
	<path fill="#FFCE00" d="M295.5,337.3c0,0,1.1,8.4-4.4,13.9l3.8,0.7c0,0,6.4-3.1,7.3-15.2"/>
	<path fill="#FFFFFF" stroke="#1D1D1B" stroke-width="2" stroke-miterlimit="10" d="M590.4,360.4c0,0-22-166.4-124.6-174.1
		S305.6,252,306.6,364.9L590.4,360.4z"/>
	
		<linearGradient id="SVGID_4_" gradientUnits="userSpaceOnUse" x1="654.7397" y1="553.2129" x2="339.6815" y2="551.583" gradientTransform="matrix(0.9009 0 0 -0.9009 9.905851e-02 772.6564)">
		<stop  offset="0" style="stop-color:#FFFFFF"/>
		<stop  offset="0" style="stop-color:#FDFDFD"/>
		<stop  offset="0" style="stop-color:#F6F6F6"/>
		<stop  offset="0" style="stop-color:#EBEBEB"/>
		<stop  offset="0" style="stop-color:#DADADA"/>
		<stop  offset="1.000000e-02" style="stop-color:#C4C5C5"/>
		<stop  offset="1.000000e-02" style="stop-color:#ABACAC"/>
		<stop  offset="0.2" style="stop-color:#A8A9A9"/>
		<stop  offset="0.37" style="stop-color:#9E9F9E"/>
		<stop  offset="0.52" style="stop-color:#8D8E8D"/>
		<stop  offset="0.66" style="stop-color:#757675"/>
		<stop  offset="0.8" style="stop-color:#565755"/>
		<stop  offset="0.94" style="stop-color:#31312F"/>
		<stop  offset="1" style="stop-color:#1D1D1B"/>
	</linearGradient>
	<path fill="url(#SVGID_4_)" d="M590.4,360.4c0,0-22-166.4-124.6-174.1S305.6,252,306.6,364.9L590.4,360.4z"/>
	<path fill="#FFFFFF" stroke="#1D1D1B" stroke-width="2" stroke-miterlimit="10" d="M502.3,359.3c0,0,8.5,0,8.5-12.1v-56.9
		c0,0-1.2-12.9-9.3-12.9H381.7c0,0-5.6,1.6-5.6,11.7v60.5c0,0,1.2,9.3,8.1,9.3h113.4"/>
	<polygon fill="#FFFFFF" stroke="#1D1D1B" stroke-width="2" stroke-miterlimit="10" points="468.2,202.7 458.9,141.4 435.9,141.4 
		422.2,203.3 445.2,227.2 	"/>
	<path fill="#FFFFFF" stroke="#1D1D1B" stroke-miterlimit="10" d="M459.6,132.1c0,0-6.1-8.8-18.2-5.5c-12.1,3.3-11.5,32.9-4.4,42.2
		c7.1,9.3,8.5,9.2,8.5,9.2s20.8,2.1,14.2-46.2"/>
	<path fill="#FFFFFF" stroke="#1D1D1B" stroke-width="2" stroke-miterlimit="10" d="M448.2,314.1c0,2.7-2.2,4.8-4.8,4.8
		c-2.7,0-4.8-2.2-4.8-4.8c0-2.7,2.2-4.8,4.8-4.8C446.1,309.2,448.2,311.4,448.2,314.1L448.2,314.1z"/>
	<path fill="#1D1D1B" stroke="#1D1D1B" stroke-width="2" stroke-miterlimit="10" d="M597,377.2c-4.4,0.7-334.4,0-334.4,0l7.5,186.6
		L237,358.2h358.7v21.9"/>
	<line fill="none" stroke="#1D1D1B" stroke-width="2" stroke-miterlimit="10" x1="561.9" y1="319.3" x2="510.4" y2="319.3"/>
	<line fill="none" stroke="#1D1D1B" stroke-width="2" stroke-miterlimit="10" x1="341.7" y1="316" x2="374.5" y2="316"/>
	<path fill="#FFFFFF" stroke="#1D1D1B" stroke-width="2" stroke-miterlimit="10" d="M519.7,264.5c1.6,1.6,14.2,31.8,12.6,52.6"/>
	<path fill="none" stroke="#1D1D1B" stroke-width="2" stroke-miterlimit="10" d="M369.6,267.2c0.5,2.2-14.8,19.7-12.6,47.1"/>
	<path fill="#FFCE00" d="M446,181.4l-0.7,39.5l18.3-18.3l-3.6-32.9C459.8,169.7,451.1,179.9,446,181.4z"/>
	<path opacity="0.5" fill="#FFCE00" enable-background="new    " d="M519,353.8h63.6c0,0-13.9-73.8-32.2-95c0,0,16.8,65.8,15.3,69.4
		h-48.2"/>
	<path opacity="0.5" fill="#FFCE00" enable-background="new    " d="M338.6,263.9c0,0-22.7,32.9-23.4,86.2h54.1v-24.8l-35.8-2.2
		c0,0,2.2-35.1,10.2-56.3"/>
	<path fill="#FFCE00" d="M399.6,212.1c0.7,1.1,48.9,63.9,48.9,63.9l-50.4-61.7"/>
	<polyline fill="#FFCE00" points="385.7,220.1 429.2,275.6 383.9,222.6 	"/>
	<path fill="#FFCE00" d="M492,211.3c-2.9,2.9-57.3,64.7-53.3,63.2c4-1.5,56.3-63.2,56.3-63.2"/>
	<path fill="#FFCE00" d="M515.4,219.7c-1.8,3.3-47.5,56.3-47.5,56.3l51.5-52.6"/>
	<path fill="#FFCE00" d="M474.8,207.3c-0.7,1.5-59.2,64.7-59.2,64.7l62.1-62.5"/>
	<path fill="#FFCE00" d="M429.9,218.6c-1.1,2.6-43.1,51.5-43.1,51.5l45.7-49"/>
	<path fill="#FFCE00" d="M427.3,222.6c1.8,2.6,42.4,50,42.4,50l-40.2-52.2"/>
	<path fill="#FFCE00" d="M456.2,225.6c2.9,3.3,42.7,45.3,42.7,45.3l-40.9-49"/>
	<path fill="#FFCE00" d="M474.1,204.4c2.6,3.3,36.9,47.9,37.6,49l-32.5-48.2"/>
	<path fill="#1D1D1B" stroke="#1D1D1B" stroke-width="2" stroke-miterlimit="10" d="M370.3,378.6c0,0-26.3,0.7-22.7,25.6
		c3.6,24.8,67.9,112.5,67.9,112.5l15.3-6.6C431,510.1,415.6,366.2,370.3,378.6z"/>
	<path fill="#1D1D1B" stroke="#1D1D1B" stroke-width="2" stroke-miterlimit="10" d="M499.7,378.6c0,0,26.3,0.7,22.6,25.6
		c-3.7,24.8-67.9,112.5-67.9,112.5l-15.3-6.6C439,510.1,454.4,366.2,499.7,378.6z"/>
	<path fill="#FFFFFF" stroke="#1D1D1B" stroke-miterlimit="10" d="M288.9,159c1.5,2.9,13.9,51.1,12.4,74.5"/>
	<path fill="none" stroke="#1D1D1B" stroke-miterlimit="10" d="M308.6,193.4c-3,2.9-9.5,12.4-9.5,12.4l-11-12.4"/>
	<polyline fill="none" stroke="#1D1D1B" stroke-miterlimit="10" points="299.1,179.5 294.7,187.5 288.2,181 	"/>
	<path fill="none" stroke="#1D1D1B" stroke-miterlimit="10" d="M289.8,210.4l8.8,13.2l11.5-9.9"/>
	<path fill="none" stroke="#1D1D1B" stroke-miterlimit="10" d="M280.7,214.8c0,0-9.1-13-21.2-15.3c-12.1-2.4-19.2-0.2-19.2-0.2
		s-1.8-5.1-9.5-2.9c-7.7,2.2-13.2,14.8-12.2,14.8s9.7,2.7,15-0.2c3.2-1.9,5.7-4.9,6.9-8.4c0,0,23.7-5.3,45.1,26.1"/>
	<path fill="none" stroke="#1D1D1B" stroke-miterlimit="10" d="M316.1,198.1c0.5-0.4,7.5-10.6,21.6-13.3
		c14.1-2.7,26.3-11.1,26.3-11.1s-4.7,26.3-13.5,39.6c-8.8,13.3-24.8,22.3-24.8,22.3"/>
	<path fill="none" stroke="#1D1D1B" stroke-miterlimit="10" d="M316.1,224.8c0,0,25-27.4,36.2-32.5"/>
	<path fill="none" stroke="#1D1D1B" stroke-miterlimit="10" d="M338.4,190.8c0.4,0.5-0.7,12.6-0.7,12.6s10.6,1.5,11.1,1.6"/>
	<path fill="none" stroke="#1D1D1B" stroke-miterlimit="10" d="M328.9,198.9c0,0.7,2,10.2,2,10.2l9.3,2.7"/>
	<path fill="none" stroke="#1D1D1B" stroke-miterlimit="10" d="M322.7,205.1c0.2,0.7,1.1,9.1,1.1,9.1l9.5,4.9"/>
	<path fill="none" stroke="#1D1D1B" stroke-miterlimit="10" d="M322.1,195.6c0.7-4.4,1.8-64.7-9.5-89.9c0,0,5.1,60.3-0.7,77.8"/>
	<path fill="none" stroke="#1D1D1B" stroke-miterlimit="10" d="M307.8,171.1c0-2.2-9.5-54.8-29.6-63.9c0,0,19.4,32.9,19.4,46"/>
	<path fill="#FFCE00" d="M465.9,285.2c0.8,0.3,35.9,0,35.9,0s3.8,3.3,3.8,12.9v47.7c0,0-3,7.7-8.8,7.7h-63.8c0,0,53.7-9,55.9-36.7
		c2.2-27.7-21.6-30.1-21.6-30.1"/>
	<path fill="#FFCE00" d="M446.7,174.2c0.5-0.4,10.4-23.5,8.9-33.1c-1.6-9.6-7.4-5.9-7.4-5.9s1.6-5.4,4.5-5.6c2.8-0.2,5,1.3,5.8,5.6
		s6.8,37.3-12.8,41.4"/>
	<path fill="#FFFFFF" stroke="#1D1D1B" stroke-width="2" stroke-miterlimit="10" d="M721.8,22.7c0,1.5-1.2,2.7-2.7,2.7h-46.3
		c-1.5,0-2.7-1.2-2.7-2.7l0,0c0-1.5,1.2-2.7,2.7-2.7h46.3C720.6,20,721.8,21.2,721.8,22.7z"/>
	<path fill="#FFFFFF" stroke="#1D1D1B" stroke-width="2" stroke-miterlimit="10" d="M661.1,196.9c0,0-30,8.5-31.1,47.8
		c-1.1,39.3,8.7,52.6,8.7,52.6s-10.9-55.9,15.2-71.7"/>
	<path fill="#FFFFFF" stroke="#1D1D1B" stroke-width="2" stroke-miterlimit="10" d="M668.3,199.3l4-27.9c0,0-1.3-5.4,2.4-6.2
		c3.1-0.6,6.3,1.1,7.5,4c0.8,2.1,0.5,3.8-0.3,4.6c-0.8,0.8-2.2,0-1.9,0.8s0.8,15.6,4,19.3"/>
	<path fill="#FFFFFF" stroke="#1D1D1B" stroke-width="2" stroke-miterlimit="10" d="M688.2,190.5c2.1,2.4,25,45.1,19.9,81.4
		c-5.1,36.3-18.5,68.5-18.5,68.5l-12.4-54.6L660,346.2c0,0-49.9-162.7,28.2-156.8"/>
	<path fill="#FFFFFF" stroke="#1D1D1B" stroke-width="2" stroke-miterlimit="10" d="M686.8,190.5c1.9-0.8,30.9-11.8,35.4-32.7
		s3.2-26.3,3.8-25.5c0.5,0.8,29.3,71.2-35.2,96.7"/>
	<path fill="#1D1D1B" d="M660,346.2l-5.5,11.3l5.8-2.9c0,0,0,1.9,1.4,2.4s3.9-1,3.9-1s-0.7-7.7-3.6-11.6"/>
	<path fill="#1D1D1B" d="M689.1,336.1c0,0.7-0.7,10.8-0.7,10.8h2.4l0.7-3.1c0,0,1,2.4,1.9,2.9c1,0.5,7.7,1,7.7,1
		s-11.1-7.9-11.1-11.3"/>
	<path fill="none" stroke="#1D1D1B" stroke-miterlimit="10" d="M696.3,189.7c0,0,4.3,17.3,17.3,23.1"/>
	<path fill="none" stroke="#1D1D1B" stroke-miterlimit="10" d="M694.4,197.4c2.9,8.7,9.3,15.7,17.8,19.3"/>
	<path fill="#FFCE00" d="M705.9,197.4c0,0,13.9-11,18.7-23.6c4.8-12.5,4.3-27.9,4.3-26.4s11.6,33.7-14.9,61.5"/>
	<path fill="#999A9A" d="M663.3,279.4c0,1-1,57.9-1,57.9l22-59.6c0,0-12.7,2.4-20.1-1"/>
	<path fill="#FFCE00" d="M674.3,187.6c0.3-0.7,1.5-15.2,1.5-15.2s-1.1-3.6-0.3-4.5c0.4-0.5,1.1-0.8,1.8-0.6c0,0-2-1.8-3.1-0.3
		c-1.2,1.5-0.5,4.8-0.5,5c0,0.2-3.4,17.9-3,17.9s3.8-1,3.8-1"/>
	<path fill="#FFCE00" d="M690.8,124.9V59.7h-54.4c0.7,0-1.1,64.2,0,64.2S690.8,124.9,690.8,124.9z"/>
	<path fill="#1D1D1B" d="M702.3,67.6c6.5,0.4,53.7-1.1,53.7-1.1v4.7l-55.2,1.4"/>
	<path fill="#1D1D1B" d="M702.3,82.8c6.5,0.4,53.7-1.1,53.7-1.1v4.7l-55.2,1.4"/>
	<path fill="#1D1D1B" d="M702.3,97.9c6.5,0.4,53.7-1.1,53.7-1.1v4.7l-55.2,1.4"/>
	<path fill="#1D1D1B" d="M702.3,113c6.5,0.4,53.7-1.1,53.7-1.1v4.7l-55.2,1.4"/>
	<path fill="none" stroke="#1D1D1B" stroke-miterlimit="10" d="M677,115.3c-0.2-0.7-5.9-19.2-5.9-19.2s7.2-17.7-0.4-22.1
		s-13.5-2.2-15.5,3.3c-2,5.4,1.7,17.7,1.7,17.7l-7,18.1"/>
	<path fill="#FFFFFF" d="M663.2,75.1c-3.1,0.9-5.4,3.6-5.8,6.9c-0.8,5.7,1.6,10.7,1.8,11.7c0.2,1-5,19-4.5,18.9
		c0.5-0.1,7.1-15.5,7.1-15.5s2.8,1,3.6,0.3c0.8-0.6-8.1-14.1-4-17.3c4-3.3,8.4-1.4,8.7-1s-1.2-3.7-4.2-4.3"/>
	<path fill="#FFFFFF" d="M685.6,117.6c0,0-27.2-12-45.2-1.3c0,0,34-5,45.1,3.9"/>
	<path fill="#1D1D1B" d="M664.6,116.6c0.4,0.7,0.7,1.4,1,2.2c0,0.5-1.6,0.8-1.6,1.3c0.3,1.3,0.7,2.5,1.1,3.7l-4.4,0.2l0.7-3.6
		c0,0-1.4-0.5-1.3-1.6c0.5-1.4,1.4-2.7,2.6-3.6"/>
	<path fill="#FFFFFF" stroke="#1D1D1B" stroke-width="2" stroke-miterlimit="10" d="M752.2,289v-13.3c0,0-11.4-1.3-11.4,0
		s-1.4,13.7,0,13.7s7.6-0.5,8.1,0"/>
	<path fill="#FFFFFF" stroke="#1D1D1B" stroke-width="2" stroke-miterlimit="10" d="M730.8,287.4c-0.5-1.8-4.7-15-6-12.8
		c-1.3,2.2-7.9,12.8-6.7,12.6c1.3-0.2,11.9-0.4,11.9-0.4"/>
	<path fill="#FFFFFF" stroke="#1D1D1B" stroke-width="2" stroke-miterlimit="10" d="M645.3,285.7c-0.5-1.3-5-9.6-5-8.7
		c0,0.9-3.6,7.4-2.9,8.1s7,0.2,7,0.2"/>
	<path fill="#FFFFFF" d="M698.5,274.4c0,0.5-8.5,56.8-8.5,56.1c0-0.8-3.2-51.2-2.5-51.4s10.6-7.6,12.6-9.7"/>
	<path fill="none" stroke="#1D1D1B" stroke-miterlimit="10" d="M757.1,251.7c0,0,0.2-26-1.7-26s-33.9-1.2-34.9,1.9
		c-1,3.1-4.3,25.7,0.7,26c5,0.3,39.2-0.5,39.2-0.5"/>
	<polygon fill="#FFCE00" points="733.8,235.4 745.3,240.2 733.3,244.3 	"/>
	<path fill="#FFCE00" d="M720.3,220.2c2.2,0.2,35.1-0.7,35.1-0.7"/>
	<path fill="#FFCE00" d="M718.9,258.2c1.7,0,40.4-0.7,40.4-0.7"/>
	<path fill="#FFCE00" d="M754,201.3c-0.2-3.1,0.5-70.4,0.5-70.4"/>
	<line fill="none" x1="747.2" y1="202.2" x2="732.1" y2="201.7"/>
	<path fill="#FFCE00" d="M747.7,138.5c-1.7,0.2-13.2,1.2-13.2,1.2"/>
	<path fill="#FFCE00" d="M744.1,146.2c0,0-9.1-0.5-8.7,0.2"/>
	<path fill="#FFCE00" d="M743.9,160.4l-1.2-3.9c0,0-2.4-0.2-2.6,0.7s-0.7,1.2-0.2,2.4"/>
	<path fill="#FFCE00" d="M742.4,169l0.2-3.4c0,0-2.9-1-2.6,0.5s-1,2.6,0,3.1"/>
	<path fill="#FFFFFF" stroke="#1D1D1B" stroke-miterlimit="10" d="M164.9,104.7c0,0-5,10.4-2.7,13.4c2.2,3,17.8,3.2,16.1-7.9
		c-1.7-11.1-9.6-7.2-9.6-7.2"/>
	<path fill="#FFFFFF" stroke="#1D1D1B" stroke-width="2" stroke-miterlimit="10" d="M187.8,136.8c0,0,1,19.8-4,28
		c0,0,18.9,15.4,11.6,50c-7.3,34.6-8.7,72.4-8.7,72.4s-9.2-79.9-7.6-72.3s-30,69.3-30,69.3s2.9-102.9,14.4-117.1
		c0,0-44.1-9.6-53.4-31.1c0,0,30.7,11.2,53.5,1.9"/>
	<path fill="#1D1D1B" d="M170.8,101h13.3c0,0-0.5,18.6,1.5,23.3c2,4.7,6.7,9.6,6.7,9.6s-5.4,14.9-16.1,15.3
		c-10.6,0.5-18.6-14.1-14.6-21.5c4-7.4,15.6-16.6,12.6-19.6c-0.6-0.5-1.4-0.6-2-0.3c-0.7,0.4-1.3,0.9-1.8,1.6l-2.3-3.6
		c0,0-9.9-1.7-7.4-4.3C163.1,99,170.8,101,170.8,101z"/>
	<path fill="#1D1D1B" d="M148.7,275.9c0,0-2.3,17.5-3,19c-0.7,1.5-6.3,7.9-6.1,8.4c0.2,0.5,6.4-5.4,8.4-3.8c2,1.6,3,6.4,3.8,4.3
		c0.8-2.1,1.5-30.7,1.5-30.7"/>
	<path fill="#1D1D1B" d="M186.2,278.7c0,4.9-1.6,7.3-2.5,14c-0.8,6.8-6.6,11.1-5.8,10.9s7.6-5.6,8.4-4.6c1,1.6,2,3.3,2.8,5.1
		c0,0,1.3-27.4,1.6-29.4"/>
	<path fill="#999A9A" stroke="#1D1D1B" stroke-miterlimit="10" d="M195.5,214.8c0,2.3-7.4,70.8-7.4,70.8l-9.5-71.8
		c0,0,11-0.7,18.9-11.7"/>
	<path fill="#FFCE00" d="M168.4,108.1c0.6,0.9,0.9,1.9,0.9,3c0.2,2.2-1.1,5.2-2.5,5.7s-3.5-0.6-2.9-0.2s2.1,2.3,4,1.3
		c2-1,7.4-8.4,5.5-8.9c-1.8-0.5-3.3,2.1-3.3,2.1s-1-3.6-2.7-4.2"/>
	<path fill="#1D1D1B" d="M110.3,136.1c0,0-1-5.5-4.7-7.5c-3.7-2-7-2.1-6.3-1.4c0.8,0.8,3.3,1.9,3.5,2.5c0.2,0.6,0.2,4.9,3.1,6.5
		c2.9,1.6,4.3,1,4.3,1"/>
	<path d="M132,233h4.6v-3.6h-25.8v4.8h5.8l-13,74.6h5.5l3.3-19.7h24.6l5,19.7l4.1,0.9L132,233z M115,283.7c0,0,5.8-47.6,5.8-48.8
		c0-1.2,7.3,0,7.3,0s7.6,47.6,7.6,48.8H115z"/>
	<polyline fill="none" stroke="#000000" stroke-miterlimit="10" points="73.1,299.2 73.1,244.1 79,244.1 79,236.3 -1.2,236.3 	"/>
	<path fill="none" stroke="#000000" stroke-miterlimit="10" d="M67.5,235.5c0.2-0.5,3.2-11.6,2.8-11.6c-0.4,0-9.6-0.3-9.6,0
		c0,0.3,2.4,11.5,2.4,11.5L67.5,235.5z"/>
	<path fill="#FFCE00" d="M68.1,228.6h-5.5l1.3,5.8c0,0,2.7,0,2.9-0.1C67,234.2,68.1,228.6,68.1,228.6z"/>
	<polyline fill="#FFCE00" points="58.1,235.1 58.1,219.6 55.8,217.7 55.8,216.6 55.8,216.2 51.8,216.2 51.9,218.4 49.9,219.2 
		49.9,234.9 49.9,235.5 57.8,235.5 	"/>
	<polyline fill="#1D1D1B" stroke="#1D1D1B" stroke-miterlimit="10" points="56,216.7 56,215 51.5,215 51.5,217.1 56,217.1 	"/>
	<path fill="#1D1D1B" stroke="#1D1D1B" stroke-miterlimit="10" d="M33.4,66.5c0.4-1.6-1.9-22.1,1-22.9c2.9-0.8,33.2-1.2,33.8,0.4
		c0.6,1.6,2.3,23.1-0.4,23.7c-2.7,0.5-31.3,0.6-32.1,0.6"/>
	<path fill="#1D1D1B" stroke="#1D1D1B" stroke-miterlimit="10" d="M34.2,105.9c0.4-1.6-1.9-22.1,1-22.9c2.9-0.8,33.2-1.2,33.8,0.4
		c0.6,1.6,2.3,23.1-0.4,23.6c-2.7,0.6-31.3,0.6-32.1,0.6"/>
	<path fill="#1D1D1B" stroke="#1D1D1B" stroke-miterlimit="10" d="M34.2,143.1c0.4-1.6-1.9-22.1,1-22.9c2.9-0.8,33.2-1.2,33.8,0.4
		c0.6,1.6,2.3,23.1-0.4,23.6c-2.7,0.6-31.3,0.6-32.1,0.6"/>
	<path fill="#FFFFFF" stroke="#1D1D1B" stroke-miterlimit="10" d="M55.3,53.7c0,0-5.3-7.2-5.7-5.1c-0.5,1.9-1.2,3.7-2.1,5.5
		c0,0-6.1,1-5.3,2.1c0.8,1.2,3.5,2.3,3.5,2.3s1.6,6.6,3.1,6.1s2.9-3.1,2.9-3.1s4.7,3.7,4.9,2.5c0.2-1.2-1.2-4.1-0.2-4.7
		c1.4-1.2,2.8-2.4,4.1-3.7l-4.3-0.4"/>
	<path fill="#FFFFFF" stroke="#1D1D1B" stroke-miterlimit="10" d="M60.8,101.6c0.4-0.6,0.8-12.9-0.6-12.7
		c-1.4,0.2-17.4-1.9-17.8,0.4c-0.4,2.3-3.1,12.9,0.4,12.9s11.9-0.4,13.7-0.2"/>
	<path fill="#FFFFFF" stroke="#1D1D1B" stroke-miterlimit="10" d="M45,91.7c1,1.2,6.1,7.2,6.8,6.8s7.4-7,7.4-7"/>
	<path fill="#FFFFFF" stroke="#1D1D1B" stroke-miterlimit="10" d="M58.7,130c-0.7,0-1.3,0.2-1.9,0.5c0.1-0.4,0.2-0.8,0.2-1.1
		c-0.1-2.2-1.9-3.9-4.1-3.9c-1.5,0-2.9,0.9-3.5,2.3c-0.9-1-2.4-1-3.3-0.2c-0.5,0.5-0.8,1.1-0.8,1.8c0,0.2,0,0.4,0.1,0.7h-0.1
		c-2.2-0.1-4.1,1.6-4.2,3.8c-0.1,2.2,1.6,4.1,3.8,4.2c0.1,0,0.3,0,0.4,0c0.2,0,0.3,0,0.5,0h12.5c0.2,0,0.3,0,0.5,0
		c2.2-0.1,3.9-2,3.8-4.2C62.4,131.8,60.8,130.2,58.7,130L58.7,130z"/>
	<path fill="#FFFFFF" stroke="#1D1D1B" stroke-miterlimit="10" d="M149.6,62.6c-1,0-21.4,0.5-36.7,1c-15.4,0.5-13.6-0.3-20.1,0.5
		S85.2,65,85.2,65"/>
	<path fill="none" stroke="#1D1D1B" stroke-miterlimit="10" d="M88.9,59.7c-0.8,1-7.8,5.7-6.3,6.2s0,0.5,4.4,1.8"/>
	<path fill="none" stroke="#1D1D1B" stroke-miterlimit="10" d="M145.2,68.6c-3.4,3.4-33.6,33.1-46.7,36.5S80,108.3,80,108.3"/>
	<path fill="none" stroke="#1D1D1B" stroke-miterlimit="10" d="M83.9,102.2c0,0-9.4,4.9-7,6.7c1.9,1.4,4,2.5,6.2,3.4"/>
	<path fill="none" stroke="#1D1D1B" stroke-miterlimit="10" d="M148.3,75.9c0.8,0,18.8-1,18.8-1"/>
	<path fill="none" stroke="#1D1D1B" stroke-miterlimit="10" d="M149.1,79c8.3,0,22.1-1.6,21.4-1"/>
	<path fill="none" stroke="#1D1D1B" stroke-miterlimit="10" d="M149.6,82.9c4.7,0,23.2-1.3,21.9-0.5"/>
	<path fill="none" stroke="#1D1D1B" stroke-miterlimit="10" d="M150.6,87.4c4.7,0,19-0.3,19-0.3"/>
	<path fill="none" stroke="#1D1D1B" stroke-miterlimit="10" d="M169.7,62.3c0.8-0.3,7-10.2,0.8-15.4s-8.3-6.5-13.5-4.2
		c-5.2,2.3-8.3,3.9-8.9,7c-0.5,3.1,1.6,8.3,3.1,9.9s1.8,2.9,5.5,3.1c3.6,0.2,3.6,0.5,6.7,0.5c3.1,0,3.4,0.5,4.2,0"/>
	<path fill="none" stroke="#1D1D1B" stroke-miterlimit="10" d="M162.4,49.1c0,0,0.8,0.8,1,3.1s-0.8,4.2-0.8,5.2s-0.5-0.5,0,1
		c0.5,1.6-1,1.8-1.8,0.8c-0.8-1-1.8-1-1.3-2.1c0.3-0.9,0.5-1.9,0.5-2.9l-1.6-1c0,0,1-1.3,0-1.3s-3.4,0-4.2-0.8
		c-0.5-0.7-0.9-1.5-1-2.3c0,0-2.1-1,0.8-1c2.9,0,2.9,1.3,3.4-1s-0.8-1.6,0.5-2.3c1.3-0.8-0.3-0.8,1.3-0.8c1.6,0-1.8-1.6,1.6,0
		c1.9,0.8,3.2,2.6,3.1,4.7"/>
	<path fill="none" stroke="#1D1D1B" stroke-miterlimit="10" d="M170.2,48c-0.8,1-3.1,3.1-2.6,3.9s-0.8,0.8,1,2.1s-0.3,1.6,1.8,1.3
		c2.1-0.3,2.9,0.8,2.1-0.3"/>
	<path fill="none" stroke="#1D1D1B" stroke-miterlimit="10" d="M152.5,54.8c0,0,1-0.8,2.1,1.8c1,2.6,0.3,4.2,0.3,4.2
		s-0.8,1.3-1.3-0.3L153,59"/>
	<path fill="#1D1D1B" stroke="#1D1D1B" stroke-width="2" stroke-miterlimit="10" d="M570.3,376.8c0.7,2.2-24.1,188.7-24.1,188.7
		l49-187.5"/>
	<path fill="#FFFFFF" stroke="#1D1D1B" stroke-width="2" stroke-miterlimit="10" d="M185,140c0,0,19.8,1.8,21.9,11.2
		c2.1,9.4-10.4,22.7-10.4,22.7s8.3-22.1-10.9-23.2"/>
	<path fill="#1D1D1B" stroke="#1D1D1B" stroke-width="2" stroke-miterlimit="10" d="M429,515l-12.9,5.5c0,0-1.6,23,6.6,25.2
		c8.2,2.2,11.8-23.3,9.6-29.3"/>
	<path fill="#1D1D1B" stroke="#1D1D1B" stroke-width="2" stroke-miterlimit="10" d="M438.8,516.1l12.9,5.8c0,0,6.6,21.9-4.4,23.3
		C436.4,546.5,438,527.4,438.8,516.1z"/>
	<path fill="#FFFFFF" stroke="#1D1D1B" stroke-width="2" stroke-miterlimit="10" d="M155,193.8c0,0,6.7,2.2,11.2,3.5
		c4.5,1.3,10.2,3,10.2,3l6-11.1c0,0,7.5,7.9,8.4,7.9s5.8-5.3,5.8-5.3"/>
	<path fill="#FFFFFF" stroke="#1D1D1B" stroke-miterlimit="10" d="M708.3,254c-1,0.5-30.5,9.9-63.7,2.4"/>
	<path fill="#FFFFFF" stroke="#1D1D1B" stroke-miterlimit="10" d="M636.1,223.1c0,0,3.7,8.8,8.3,11.7"/>
	<path fill="#FFFFFF" stroke="#1D1D1B" stroke-miterlimit="10" d="M636.2,229.2c0,0,4.3,5.3,6.7,6.9"/>
	<path fill="#999A9A" d="M695.9,230.7c0.5,1.4,1,23.3,2.3,23.1c1.3-0.2,7.5-1.6,7.7-2.1c0.2-0.5-4.3-25.5-4.3-25.5"/>
	<path fill="#FFFFFF" stroke="#1D1D1B" stroke-width="2" stroke-miterlimit="10" d="M725.7,135.6c-0.2,0.1-6.6-0.1-6.6-1.9
		c0-0.8,0-1.6-0.2-2.4c0,0-2.7,0-2.1-1.5c0.6-1.5,0.4-2.6,1.4-2.6c0.7,0,1.4,0.1,2.1,0.2c0,0-0.7-8.8,1.4-9.1s2.6,0.4,2.6,0.4
		l0.3,3.5c0.7-0.6,1.6-0.9,2.6-0.9c1.4,0.1,3.9,0.2,4.8,1.4c1,1.3,2.9,9.5,1,11.4c-1.8,1.9-5.3,1.9-5.3,1.9"/>
	<path fill="#FFFFFF" stroke="#1D1D1B" stroke-width="2" stroke-miterlimit="10" d="M729.1,122.2c0.1,0.3,0.2,3.2,0.2,3.2"/>
	<path fill="#FFFFFF" stroke="#1D1D1B" stroke-width="2" stroke-miterlimit="10" d="M726.3,122c0.1,0.5-0.1,2.9,0.2,3.2"/>
	<path fill="#FFFFFF" stroke="#1D1D1B" stroke-width="2" stroke-miterlimit="10" d="M634.6,279.9c0,0,7.4,0.8,7.6,4.2
		s-0.8,4.8,0.7,5.3c1.6,0.7,2.4,2.6,1.7,4.3c-0.1,0.3-0.3,0.6-0.5,0.8c-0.9,1-2.5,1.1-3.6,0.2c0,0,1.5,10-3.5,10.4
		c-5,0.3-9.1,0.3-8.6-8s0.2-15.1,4.3-16.2"/>
	<line fill="none" stroke="#1D1D1B" stroke-width="2" stroke-miterlimit="10" x1="637.2" y1="300.8" x2="636.7" y2="305"/>
	<path fill="#FFFFFF" stroke="#1D1D1B" stroke-width="2" stroke-miterlimit="10" d="M633.9,300.4c0,0.8-0.2,3.9-0.2,3.9"/>
</g>
</svg>
